<svg width="47" height="44" viewBox="0 0 47 44" fill="none" xmlns="http://www.w3.org/2000/svg">
<path d="M27.707 3.48873L30.1788 9.99901C30.9764 12.0996 32.9715 13.5039 35.2181 13.5458L41.7905 13.6684C46.1557 13.7498 47.8592 19.375 44.2725 21.8644L39.7885 24.9766C37.7867 26.3661 36.9377 28.907 37.7023 31.2207L39.4874 36.6225C40.8153 40.6408 36.3661 44.1036 32.7968 41.8298L26.4551 37.7897C24.6524 36.6413 22.3476 36.6413 20.5449 37.7897L14.2032 41.8298C10.6339 44.1036 6.18473 40.6408 7.51262 36.6225L9.29771 31.2207C10.0623 28.907 9.21335 26.3661 7.21154 24.9767L2.72754 21.8644C-0.859151 19.375 0.844257 13.7498 5.20946 13.6684L11.7819 13.5458C14.0285 13.5039 16.0236 12.0996 16.8212 9.99901L19.293 3.48873C20.7625 -0.381504 26.2375 -0.381505 27.707 3.48873Z" fill="#FAFF15" stroke="#5B4F4F"/>
</svg>
