<?xml version="1.0" standalone="no"?>
<!DOCTYPE svg PUBLIC "-//W3C//DTD SVG 20010904//EN"
 "http://www.w3.org/TR/2001/REC-SVG-20010904/DTD/svg10.dtd">
<svg version="1.0" xmlns="http://www.w3.org/2000/svg"
 width="100.000000pt" height="200.000000pt" viewBox="0 0 379.000000 400.000000"
 preserveAspectRatio="xMidYMid meet">
<metadata>
Created by potrace 1.16, written by Peter Selinger 2001-2019
</metadata>
<g transform="translate(0.000000,400.000000) scale(0.100000,-0.100000)"
fill="#000000" stroke="none">
<path d="M240 1995 l0 -1205 1640 0 1640 0 0 1205 0 1205 -1640 0 -1640 0 0
-1205z m1852 881 c227 -58 280 -97 731 -545 202 -201 367 -368 367 -372 0 -12
-85 -49 -113 -49 -48 0 -92 26 -158 93 -35 36 -174 179 -309 317 -301 308
-374 362 -550 406 -113 29 -331 26 -420 -5 -113 -40 -228 -110 -317 -195 l-84
-79 -50 17 c-28 9 -61 16 -73 16 -55 1 -46 16 66 126 62 60 145 130 183 156
102 66 267 126 395 142 77 9 238 -4 332 -28z m-91 -403 c116 -39 162 -78 531
-442 202 -200 358 -361 356 -369 -4 -21 -67 -52 -106 -52 -18 0 -47 7 -65 16
-18 8 -176 161 -352 339 -285 289 -327 327 -380 351 -45 20 -77 26 -130 27
-96 1 -157 -22 -239 -90 l-68 -56 -55 54 -54 54 59 55 c68 63 129 97 222 122
81 22 202 18 281 -9z m-881 -271 c44 -20 105 -75 305 -272 218 -215 259 -251
320 -281 64 -31 77 -34 160 -33 94 0 165 20 165 46 0 7 -63 76 -140 153 -77
77 -140 145 -140 150 0 16 86 98 98 94 19 -7 703 -691 700 -700 -6 -19 -172
-148 -245 -191 -312 -183 -650 -167 -968 45 -71 47 -784 754 -785 778 0 14 95
107 160 157 48 36 123 76 159 83 57 12 151 -1 211 -29z"/>
<path d="M913 2072 c-47 -19 -103 -65 -103 -85 0 -16 547 -561 620 -617 155
-120 377 -185 547 -160 43 6 101 18 128 27 61 19 189 84 230 117 l30 24 -81
82 -81 83 -89 -41 c-120 -55 -197 -68 -292 -48 -124 26 -174 61 -401 277 -113
109 -234 227 -268 263 -49 52 -72 68 -114 80 -64 19 -73 19 -126 -2z"/>
</g>
</svg>
