<svg width="86" height="82" viewBox="0 0 86 82" fill="none" xmlns="http://www.w3.org/2000/svg">
<g filter="url(#filter0_d_104_3)">
<path d="M38.2772 3.58693C39.8337 -0.890872 46.1663 -0.890869 47.7228 3.58693L53.6133 20.5332C54.3 22.5086 56.1434 23.8479 58.2343 23.8905L76.1715 24.2561C80.9111 24.3527 82.868 30.3754 79.0903 33.2394L64.7937 44.0783C63.1272 45.3418 62.4231 47.5089 63.0287 49.5106L68.2239 66.6828C69.5967 71.2203 64.4734 74.9425 60.5822 72.2348L45.8559 61.9873C44.1393 60.7928 41.8607 60.7928 40.1441 61.9873L25.4178 72.2348C21.5266 74.9425 16.4033 71.2203 17.7761 66.6828L22.9713 49.5106C23.5769 47.5089 22.8728 45.3418 21.2063 44.0783L6.90968 33.2394C3.13202 30.3754 5.08893 24.3527 9.82855 24.2561L27.7657 23.8905C29.8566 23.8479 31.7 22.5086 32.3867 20.5332L38.2772 3.58693Z" fill="#FAFF15"/>
<path d="M47.2505 3.7511L53.1411 20.6974C53.8964 22.8703 55.9242 24.3436 58.2241 24.3904L76.1613 24.756C80.4269 24.8429 82.1881 30.2634 78.7882 32.841L64.4916 43.6799C62.6585 45.0697 61.8839 47.4535 62.5501 49.6554L67.7453 66.8276C68.9808 70.9113 64.3699 74.2613 60.8678 71.8244L46.1415 61.5769C44.2533 60.2629 41.7467 60.2629 39.8585 61.5769L25.1322 71.8244C21.6301 74.2613 17.0192 70.9113 18.2547 66.8276L23.4499 49.6554C24.1161 47.4535 23.3415 45.0697 21.5084 43.6799L7.21176 32.841C3.81186 30.2634 5.57307 24.8429 9.83873 24.756L27.7759 24.3904C30.0758 24.3436 32.1036 22.8703 32.8589 20.6974L38.7495 3.75109C40.1503 -0.278926 45.8497 -0.278925 47.2505 3.7511Z" stroke="#5B4F4F"/>
</g>
<defs>
<filter id="filter0_d_104_3" x="0.92153" y="0.228577" width="84.1569" height="80.9228" filterUnits="userSpaceOnUse" color-interpolation-filters="sRGB">
<feFlood flood-opacity="0" result="BackgroundImageFix"/>
<feColorMatrix in="SourceAlpha" type="matrix" values="0 0 0 0 0 0 0 0 0 0 0 0 0 0 0 0 0 0 127 0" result="hardAlpha"/>
<feOffset dy="4"/>
<feGaussianBlur stdDeviation="2"/>
<feComposite in2="hardAlpha" operator="out"/>
<feColorMatrix type="matrix" values="0 0 0 0 0 0 0 0 0 0 0 0 0 0 0 0 0 0 0.25 0"/>
<feBlend mode="normal" in2="BackgroundImageFix" result="effect1_dropShadow_104_3"/>
<feBlend mode="normal" in="SourceGraphic" in2="effect1_dropShadow_104_3" result="shape"/>
</filter>
</defs>
</svg>
