<svg id="visual" viewBox="0 0 2560 1440" width="2560" height="1440" xmlns="http://www.w3.org/2000/svg" xmlns:xlink="http://www.w3.org/1999/xlink" version="1.1"><path d="M2281 1440L2245.7 1380C2210.3 1320 2139.7 1200 2122.5 1080C2105.3 960 2141.7 840 2179.8 720C2218 600 2258 480 2243.2 360C2228.3 240 2158.7 120 2123.8 60L2089 0L2560 0L2560 60C2560 120 2560 240 2560 360C2560 480 2560 600 2560 720C2560 840 2560 960 2560 1080C2560 1200 2560 1320 2560 1380L2560 1440Z" fill="#0066FF" stroke-linecap="round" stroke-linejoin="miter"></path></svg>
